<svg viewBox="0 0 256 256" xmlns="http://www.w3.org/2000/svg" width="2113" height="2500">
  <path d="M128 0C57.307 0 0 57.307 0 128s57.307 128 128 128 128-57.307 128-128S198.693 0 128 0zm0 234.667C66.027 234.667 21.333 189.973 21.333 128S66.027 21.333 128 21.333 234.667 66.027 234.667 128 189.973 234.667 128 234.667z" fill="#0079B9"/>
  <path d="M183.173 87.424l-28.926-5.382a.666.666 0 0 0-.65.234l-7.28 11.095a.666.666 0 0 0 .19.96l28.87 17.452c.298.184.69.098.872-.188l9.42-12.78c.184-.298.097-.69-.188-.872zm-72.425-5.382l-28.926 5.382c-.286.053-.527.248-.65.563l-7.28 11.095a.667.667 0 0 0 .19.96l28.87 17.452c.298.184.69.098.872-.188l9.42-12.78c.184-.298.097-.69-.188-.872zm40.724 44.718c-9.154 5.549-20.18 10.967-32.68 10.967-3.197 0-6.177-.574-9.037-1.621-5.305-1.778-10.204-4.469-14.196-8.309-1.678-1.509-4.09-1.391-5.477.287l-7.659 8.845c-1.386 1.678-1.391 4.09.287 5.477 5.565 5.008 12.465 8.599 20.119 10.48 3.753 1.194 7.582 1.786 11.57 1.786 15.186 0 27.565-9.418 27.565-22.78s-12.382-22.78-27.565-22.78c-3.988 0-7.817.592-11.57 1.786-7.654 1.881-14.554 5.472-20.119 10.48-1.678 1.387-1.673 3.799-.287 5.477l7.659 8.845c1.387 1.678 3.799 1.673 5.477-.287 3.992-3.84 8.891-6.531 14.196-8.309 2.86-1.047 5.84-1.621 9.037-1.621 12.5 0 23.526-5.418 32.68-10.967 1.72-1.052 2.293-3.239 1.239-5.037l-6.933-11.045a3.293 3.293 0 0 0-4.496-1.254zm10.078-22.525l-28.926 5.382a.666.666 0 0 0-.65.234l-7.28 11.095a.667.667 0 0 0 .19.96l28.87 17.452c.298.184.69.098.872-.188l9.42-12.78c.184-.298.097-.69-.188-.872z" fill="#FFF"/>
</svg>
